<svg xmlns="http://www.w3.org/2000/svg" xmlns:xlink="http://www.w3.org/1999/xlink" version="1.1" width="40" height="40"
  viewBox="0 0 1080 1080" xml:space="preserve">
  <g transform="matrix(10.72 0 0 8.47 487.48 514.61)" id="7d733b63-2b3c-4240-a7a5-9b23ba322220">
    <rect
      style="stroke: rgb(0,0,0); stroke-width: 0; stroke-dasharray: none; stroke-linecap: butt; stroke-dashoffset: 0; stroke-linejoin: miter; stroke-miterlimit: 4; fill: rgb(255,255,255); fill-rule: nonzero; opacity: 1;"
      vector-effect="non-scaling-stroke" x="-33.085" y="-33.085" rx="0" ry="0" width="66.17" height="66.17" />
  </g>
  <g transform="matrix(1 0 0 1 543 540)">
    <path
      style="stroke: rgb(0,0,0); stroke-width: 0; stroke-dasharray: none; stroke-linecap: butt; stroke-dashoffset: 0; stroke-linejoin: miter; stroke-miterlimit: 4; fill: rgb(239,83,80); fill-rule: nonzero; opacity: 1;"
      vector-effect="non-scaling-stroke" transform=" translate(-512.01, -511.98)"
      d="M 145.194667 105.386667 C 121.88390556818084 105.38666673478352 99.5278921449954 114.6468304717663 83.04469456816605 131.1300278610593 C 66.56149699133668 147.61322525035226 57.30133300000003 169.96923856818086 57.30133300000003 193.28000000000003 L 57.301333000000014 720.810667 C 57.301333000000014 744.1214284318191 66.56149699133668 766.4774417496477 83.04469456816605 782.9606391389407 C 99.5278921449954 799.4438365282336 121.88390556818082 808.7040002652165 145.19466699999998 808.704 L 485.80266700000004 808.704 L 560.8106670000001 879.2746669999999 C 565.5210635002836 883.6651849333888 572.7088324716443 884.0254739641476 577.8346670000001 880.1279999999999 L 632.0213330000001 836.437333 C 648.5760000000001 842.752 664.7893330000002 846.122666 681.7706670000001 847.786667 L 711.0826670000001 911.317333 C 713.8988644573775 917.0282954442057 720.4340649961104 919.8626229518867 726.5280000000001 918.016 L 826.1120000000001 887.978667 C 832.2513711622622 886.0955220507302 836.1305936049758 880.0511516965742 835.285333 873.685333 L 824.832 804.565333 C 831.274667 799.232 837.461333 793.685333 843.349333 787.413333 C 849.237333 781.1413329999999 854.528 774.314666 859.8613330000001 767.146667 L 928.9813330000001 773.845333 C 935.3720027855154 774.2594970425987 941.1413657061836 770.0358204188892 942.6773330000001 763.818667 L 966.3146670000001 662.528 C 967.9060752400889 656.2906276629343 964.617683551182 649.8417263268589 958.6346670000001 647.466667 L 893.5680000000002 622.08 C 890.9249409127372 605.2679076101051 886.0162974996144 588.8914100290473 878.9760000000001 573.3973329999999 L 919.1680000000002 516.48 C 922.7264065443321 511.10930491224195 921.8975640245421 503.95603467426287 917.2053330000002 499.541333 L 848.5120000000002 435.157333 L 848.5120000000002 193.322667 C 848.5120002652167 170.01190556818082 839.2518365282339 147.6558921449954 822.7686391389409 131.17269456816604 C 806.2854417496479 114.68949699133668 783.9294284318194 105.429333 760.6186670000002 105.429333 z M 145.194667 281.216 L 760.576 281.216 L 760.576 468.22400000000005 C 747.349333 463.95733300000006 734.122667 461.05600000000004 720.469333 459.52000000000004 L 691.029333 396.245333 C 688.2463758766993 390.4539828219109 681.6116841720568 387.6105433978643 675.498667 389.589333 L 575.914667 419.626667 C 569.7116934986489 421.3987038470214 565.7859174531916 427.49735055656157 566.741333 433.877333 L 577.8346670000001 502.40000000000003 C 571.008 508.11733300000003 564.5226670000001 513.9200000000001 558.634667 520.1493330000001 C 552.9114853673129 526.3523963774512 547.581965538461 532.907420603351 542.6773330000001 539.7760000000001 L 473.0880000000001 533.717333 C 466.6599165183899 533.1394527757802 460.8071117126666 537.4376065528095 459.4346670000001 543.744 L 435.7120000000001 645.0773330000001 C 434.26033368499276 651.2873734973856 437.5075082441761 657.6374038873915 443.3920000000001 660.0960000000001 L 508.6293330000001 685.2693330000001 C 510.5920000000001 697.429333 513.8773330000001 709.1626660000001 518.0586670000001 720.8106670000001 L 145.194667 720.8106670000001 z M 699.4773329999999 562.6453329999999 C 723.1640344367261 562.2518665202193 746.073119657514 571.0971915807203 763.3493329999999 587.306667 C 780.990960910126 603.8415426546012 791.3388139277135 626.7092243876745 792.1150273648 650.875867533394 C 792.8912408018863 675.0425106791134 784.0321861168413 698.5271030751103 767.488 716.1599999999999 C 733.0276061482928 752.8045159392858 675.3940798652341 754.5995960986197 638.7199999999999 720.170667 C 602.0385713514491 685.7463021574149 600.1861593970589 628.1114688782646 634.5813329999999 591.4026670000001 C 651.4379911000307 573.4404713610385 674.8478849196375 563.0668561077875 699.4773329999998 562.6453329999999 z"
      stroke-linecap="round" />
  </g>
</svg>
